# xmcd
#
# Track frame offsets: 
#        150
#        16732
#        42672
#        72307
#        92485
#        123147
#        149657
#        164025
#        189425
#        203482
#        225387
#        255002
#        282955
#        305807
#
# Disc length: 4468 seconds
#
# Revision: 3
# Processed by: cddbd v1.5.2PL0 Copyright (c) Steve Scherf et al.
# Submitted via: ExactAudioCopy v1.0b4
#
DISCID=bd11720e
DTITLE=Ludwig Seuss and his Band - Swamp Stomp
DYEAR=1996
DGENRE=Blues
TTITLE0=Low Down Zydeco
TTITLE1=Shanty Town
TTITLE2=Grow Fins
TTITLE3=Get Up, Get Down
TTITLE4=Mean Old Word
TTITLE5=Dearest Darlin
TTITLE6=Swamp Stomp
TTITLE7=Wee Baby Blues
TTITLE8=Squeeze Box Man
TTITLE9=Louisiana Rain
TTITLE10=Boogie #706
TTITLE11=Mornin Train
TTITLE12=Bring It To Jerome
TTITLE13=Pirate Moon
EXTD=
EXTT0=
EXTT1=
EXTT2=
EXTT3=
EXTT4=
EXTT5=
EXTT6=
EXTT7=
EXTT8=
EXTT9=
EXTT10=
EXTT11=
EXTT12=
EXTT13=
PLAYORDER=
